<svg width="169" height="167" viewBox="0 0 169 167" fill="none" xmlns="http://www.w3.org/2000/svg">
<path d="M162.041 11C161.892 11 161.758 10.9519 161.639 10.8558C161.535 10.7459 161.483 10.6223 161.483 10.485V6.75655H157.558C157.409 6.75655 157.275 6.70849 157.156 6.61236C157.052 6.5025 157 6.3789 157 6.24157V4.65543C157 4.50437 157.052 4.38077 157.156 4.28464C157.26 4.17478 157.394 4.11985 157.558 4.11985H161.483V0.514981C161.483 0.36392 161.535 0.240324 161.639 0.144195C161.758 0.0480647 161.892 0 162.041 0H163.959C164.123 0 164.257 0.0480647 164.361 0.144195C164.48 0.240324 164.539 0.36392 164.539 0.514981V4.11985H168.42C168.584 4.11985 168.717 4.17478 168.822 4.28464C168.941 4.38077 169 4.50437 169 4.65543V6.24157C169 6.39263 168.941 6.51623 168.822 6.61236C168.717 6.70849 168.584 6.75655 168.42 6.75655H164.539V10.485C164.539 10.6361 164.48 10.7597 164.361 10.8558C164.257 10.9519 164.123 11 163.959 11H162.041Z" fill="#FF6633"/>
<path d="M3.78067 167C3.66915 167 3.56877 166.965 3.47955 166.895C3.40149 166.815 3.36245 166.725 3.36245 166.625V163.914H0.418216C0.306691 163.914 0.20632 163.879 0.1171 163.809C0.0390335 163.729 0 163.639 0 163.539V162.386C0 162.276 0.0390335 162.186 0.1171 162.116C0.195167 162.036 0.295539 161.996 0.418216 161.996H3.36245V159.375C3.36245 159.265 3.40149 159.175 3.47955 159.105C3.56877 159.035 3.66915 159 3.78067 159H5.21933C5.34201 159 5.44238 159.035 5.52045 159.105C5.60967 159.175 5.65428 159.265 5.65428 159.375V161.996H8.56506C8.68773 161.996 8.7881 162.036 8.86617 162.116C8.95539 162.186 9 162.276 9 162.386V163.539C9 163.649 8.95539 163.739 8.86617 163.809C8.7881 163.879 8.68773 163.914 8.56506 163.914H5.65428V166.625C5.65428 166.735 5.60967 166.825 5.52045 166.895C5.44238 166.965 5.34201 167 5.21933 167H3.78067Z" fill="#FF6633"/>
</svg>
