<svg width="25" height="158" viewBox="0 0 25 158" fill="none" xmlns="http://www.w3.org/2000/svg">
<path d="M19.7807 9C19.6691 9 19.5688 8.96067 19.4796 8.88202C19.4015 8.79213 19.3625 8.69101 19.3625 8.57865V5.52809H16.4182C16.3067 5.52809 16.2063 5.48876 16.1171 5.41011C16.039 5.32023 16 5.2191 16 5.10674V3.80899C16 3.68539 16.039 3.58427 16.1171 3.50562C16.1952 3.41573 16.2955 3.37079 16.4182 3.37079H19.3625V0.421348C19.3625 0.297753 19.4015 0.196629 19.4796 0.117978C19.5688 0.0393257 19.6691 0 19.7807 0H21.2193C21.342 0 21.4424 0.0393257 21.5204 0.117978C21.6097 0.196629 21.6543 0.297753 21.6543 0.421348V3.37079H24.5651C24.6877 3.37079 24.7881 3.41573 24.8662 3.50562C24.9554 3.58427 25 3.68539 25 3.80899V5.10674C25 5.23034 24.9554 5.33146 24.8662 5.41011C24.7881 5.48876 24.6877 5.52809 24.5651 5.52809H21.6543V8.57865C21.6543 8.70225 21.6097 8.80337 21.5204 8.88202C21.4424 8.96067 21.342 9 21.2193 9H19.7807Z" fill="#FF6633"/>
<path d="M2.94052 158C2.85378 158 2.77571 157.974 2.70632 157.921C2.6456 157.861 2.61524 157.794 2.61524 157.719V155.685H0.325279C0.238538 155.685 0.160471 155.659 0.0910781 155.607C0.0303594 155.547 0 155.479 0 155.404V154.539C0 154.457 0.0303594 154.39 0.0910781 154.337C0.151797 154.277 0.229864 154.247 0.325279 154.247H2.61524V152.281C2.61524 152.199 2.6456 152.131 2.70632 152.079C2.77571 152.026 2.85378 152 2.94052 152H4.05948C4.15489 152 4.23296 152.026 4.29368 152.079C4.36307 152.131 4.39777 152.199 4.39777 152.281V154.247H6.66171C6.75712 154.247 6.83519 154.277 6.89591 154.337C6.9653 154.39 7 154.457 7 154.539V155.404C7 155.487 6.9653 155.554 6.89591 155.607C6.83519 155.659 6.75712 155.685 6.66171 155.685H4.39777V157.719C4.39777 157.801 4.36307 157.869 4.29368 157.921C4.23296 157.974 4.15489 158 4.05948 158H2.94052Z" fill="#FF6633"/>
</svg>
